<?xml version="1.0" encoding="utf-8"?>
<!-- Generator: Adobe Illustrator 20.1.0, SVG Export Plug-In . SVG Version: 6.00 Build 0)  -->
<svg version="1.1" id="Layer_1" xmlns="http://www.w3.org/2000/svg" xmlns:xlink="http://www.w3.org/1999/xlink" x="0px" y="0px"
	 viewBox="0 0 1008 1008" style="enable-background:new 0 0 1008 1008;" xml:space="preserve">
<style type="text/css">
	.st0{fill:#FDFDFD;}
	.st1{fill:#166D56;}
	.st2{fill:#A60432;}
</style>
<g>
	<g>
		<path class="st0" d="M492,755c-81,0-162,0-243,0.1c-3.4,0-4.1-0.7-4.1-4.1c0.1-74.7,0.1-149.3,0.1-224c4.2-0.6,7.8-2.8,11.5-4.5
			c25.6-11.2,51.6-21.3,77.6-31.3c0.4,1.3-0.5,2.1-1.1,3.1c-9.9,14.9-16.5,31-18.7,48.8c-2.7,21.5-1.5,42.5,9.5,62
			c0.4,0.7,1,1.9,0.7,2.2c-4.5,5.3,0.9,3.6,2.9,4c1.8,0.4,3.6,0.3,5.5,0.4c1.3,0.1,2.9,0.3,3.4-1.3c0.5-1.8-0.9-2.9-2.3-3.3
			c-3.8-1.2-5.4-4.2-6.6-7.6c-5.5-15-7.3-30.4-4-46.2c2.8-13.5,9-25.2,18.9-35.4c2,4.7,3.8,9,5.9,14c-3.5-1.1-6.1-2.1-8.8-2.6
			c-4.4-1-5.3,2.5-6.2,5.5c-1.1,3.6,2.2,3,4,3.4c6.1,1.5,12.1,3,18,5.3c2.2,0.9,3.8,2.2,4.1,5.5c-9.1-3.2-18-2.5-26.9-2.8
			c-1.9-0.1-2.7,0.5-3.5,1.8c-2.6,4.1-1.3,7,3.6,7.4c8.6,0.7,17.1,1.7,25.4,4.4c-4.2,1.6-8.5,2.8-12.8,3.9c-5.7,1.5-11,3.8-16.1,6.7
			c-2.7,1.6-3.3,4.4-2.4,6.9c0.8,2.3,2.7,2.6,5.6,1.6c2.7-0.9,5.5-2.1,8.2-3.1c7.7-2.9,15.5-4.9,23.9-4.3c1.4,0.1,3.5-0.1,3.4,2
			c0,2-2,1.2-3.1,1.4c-10.6,1.6-20.7,4.3-29.3,11.1c-3.5,2.8-2.8,6.8-1.3,9.5c1.7,3,4.6,0.3,6.8-0.9c8.5-4.7,17.5-7.9,27.3-8.2
			c5.9-0.2,10.1,3.9,12.2,10.5c1.9,5.8-2.3,6.9-5.9,9c-1.6,1-4.9,0.5-4.6,3.7c0.3,2.7,3.2,1.7,4.7,2.8c0.5,0.4,1.2,0.6,1.8,0.9
			c2.6,1.3,4.7,3.4,3.8,6.3c-1,3.1-4,1.9-6.5,1.9c-4.2-0.1-6.4-3.7-9.9-5.2c-2.1-0.9-4.2-0.7-5.2,1.3c-1.1,2.1,1,2.8,2.5,3.5
			c7.1,3.6,13.9,7.6,20.6,11.8c8.9,5.5,18,10.6,24.2,19.4c1.3,1.9,2.5,3.6,1.3,5.9c-1.1,2-3,2-4.8,1.8c-2.5-0.3-3.5-2.2-4.1-4.4
			c-0.6-2.6-1.2-5.2-2.2-7.7c-1.8-4.6-4-4.9-7.5-1.3c-1.9,1.9-4.1,5.2-6.9,2.4c-2.7-2.7,1.1-4.2,2.5-5.9c0.9-1.1,2-2.2,1.3-3.5
			c-0.7-1.3-2.3-1.5-3.9-1.5c-3.2-0.2-4.6,2.5-6.8,3.8c-1.5,0.9-3.1,1.7-4.4-0.1c-1.1-1.6,0.1-2.8,1.3-3.8c0.7-0.5,1.3-1,1.9-1.6
			c1.2-1,3.2-2,2.1-3.9c-1-1.8-3.1-1.9-4.9-1.3c-1.4,0.4-2.6,1.5-4,2c-2.3,0.9-4.4,5.3-6.4,2.8c-2.1-2.6,2.2-4,4-5.7
			c1-0.9,1.5-1.8,1.1-3c-0.5-1.4-1.8-1.4-2.9-1.3c-2.9,0.1-5.4,1.4-7.7,3.1c-1.4,1-2.6,3.7-4.4,1.7c-1.4-1.6,1.3-2.5,2.2-3.8
			c0.2-0.3,0.5-0.5,0.7-0.7c1.1-1.3,2.5-2.5,0.8-4.2c-1.7-1.6-3.4-1.1-4.8,0.4c-1.6,1.7-3.1,3.5-4.7,5.2c-0.7,0.8-1.7,1.2-2.7,0.6
			c-1.1-0.7-0.8-1.8-0.4-2.7c0.4-0.9,1.1-1.7,1.5-2.6c0.7-1.7,3.1-3.5,0.5-5.1c-2.2-1.4-4,0.4-5.5,2.1c-0.5,0.6-0.9,1.4-1.4,2.1
			c-0.9,1.3-1.6,3.6-3.6,2.4c-1.7-1-0.2-2.7,0.4-4c0.8-1.9,1-3.6-1.2-4.5c-2.3-1-2.8,1.1-3.7,2.4c-0.4,0.5-0.6,1.2-0.9,1.8
			c-0.9,1.6-0.9,4.5-3.6,3.9c-3.1-0.7-1.6-3.5-1.9-5.5c-0.2-1.3,0.3-2.7,1.3-3.5c1.4-1.2,0.5-1.9-0.3-2.8c-0.9-0.9-1.6-1.3-3-0.5
			c-5.1,3.3-5.1,13.5,0.3,16.5c5.4,3,10.9,5.7,16.4,8.5c15.5,7.9,28.9,18.2,38.9,32.5c2.7,3.9,6.3,7.5,6.8,12.6
			c-1.7,0.6-2.4-0.6-3.3-1.3c-10.7-8.7-20.1-18.7-28.8-29.4c-0.8-1-1.3-2.7-2.9-2.2c-1.7,0.5-2.5,2.2-2.4,4c0.1,2,0.7,4,1.7,5.7
			c3,4.9,6,9.9,8.8,14.8c8,14.1,19.5,24.2,32.9,32.4c14.8,9,31.9,9.2,42.2-7c5-7.8,7-16,3.3-24.6c-2.5-5.8-5.8-11.2-10-16.1
			c-9.2-10.7-20.2-19.1-31.7-27c-1.1-0.7-2.5-1.1-2.7-2.9c2-0.5,3.4,0.8,5,1.6c6.7,3.5,12,8.9,17.6,13.9c2,1.8,3.9,5.6,6.7,3.9
			c2.6-1.6,1.2-5.6,0.5-8.4c-4.8-19.4-5.9-39.3-6.3-59.2c0-1.3-1.2-3.9,1.7-3.7c2.9,0.2,1.3,2.6,1.3,3.9c-0.9,15.1,3,28.6,11.3,41.3
			c5.4,8.2,12.6,15.6,14.5,25.9c1.6,9,3.7,17.9,5.1,26.9c1.2,7.5,1.4,15.3,2.8,22.8c2.7,14.4,12.3,24.8,21,35.7
			c1.1,1.3,2.6,2,4.4,1.9c8.1-0.5,16.3-1,24.4-1.5c2.5-0.1,3.6-1.4,3.5-3.8c-0.4-6.6-0.1-13.4-1.6-19.9c-1.5-6.3-4.5-11-11.7-12.5
			c-4.1-0.9-8-1.8-12.2-1c-1,0.2-2.7,0.8-2.9-0.8c-0.2-1.5,0.7-2.9,2.5-3.1c1.3-0.1,2.7-0.1,4,0c16.8,1.4,33.6,1.4,50.4,0
			c2.4-0.2,6-0.7,5.7,2.8c-0.3,2.9-3.6,0.9-5.4,0.7c-12.1-1.3-20.2,4.6-21.8,16.6c-0.7,5.3-0.8,10.6-1.3,15.9
			c-0.3,3.9,1.4,5.4,5.2,5.5c6.8,0.2,13.7,0.5,20.5,1.1c3.7,0.3,6.3-1,8.5-3.9c4.8-6.4,9.6-12.8,13.9-19.5c3.2-5,5.3-10.5,5.7-16.3
			c0.9-12.1,2.7-24.2,5-36.1c2-10.3,4.1-20.5,11.5-28.9c5-5.7,8.6-12.7,11.7-19.4c5-11.1,6.8-23.4,3.8-35.8c3.9-0.6,4.8,1.1,4.9,4.7
			c0.1,7.2-2.2,14.1-1.9,21.2c0.3,8.4-0.8,16.6-1.9,24.8c-0.8,6.1-2.9,12-3.1,18.2c0,1.5-0.7,3.2,1,4.1c1.9,1,3-0.4,4.3-1.6
			c3.6-3.4,7.1-7.1,11.1-10c4.1-3,7.7-7.3,13.6-8.3c-0.2,2.8-2.1,3.1-3.4,4c-14.6,10.5-29.1,21.1-38.4,37.2
			c-7.4,12.8-5.2,24.5,7.1,37.3c6.3,6.5,21.1,7.6,31,2.3c6.1-3.3,12.2-6.6,17.6-11.2c14-11.8,23.8-26.6,31-43.2c0.6-1.3,1-2-0.1-3.4
			c-2.6-3.2-4.3-1.5-6.2,0.8c-8.2,10.2-16.7,20.1-27.2,27.9c-1,0.7-1.7,2.6-3.2,1.5c-1.2-1,0.3-2.4,0.4-3.6c0.2-2.3,2.3-3.2,3.3-4.9
			c6.8-11.4,16.8-19.7,27.5-27.3c9.2-6.4,19.3-11.2,29.2-16.3c5.4-2.8,6.6-6.4,4.3-12c-1.3-3.2-2.6-6.6-6.3-8
			c-2.1-0.8-1.6-1.8-0.8-3.4c18.3-38.8,12.8-75.6-9.4-111c-0.7-1.2-2.3-2.1-1.7-3.9c0.6,0.2,1.2,0.5,1.8,0.7
			c16.4,6.5,33.3,11.9,49.2,19.9c4,2,7.7,3.5,11.6-1.4c6.8-8.4,14.5-16.2,21.3-24.7c1-1.2,2-3.3,4.3-2.8c0,89.6,0,179.2,0.1,268.7
			c0,3.6-0.7,4.4-4.3,4.4C680.8,755,600.9,755,521,755c-0.3-2,0.9-2.4,2.5-2.9c3.3-1,6.3-2.7,8.6-5.5c1.4-1.8,2.5-3.8,1.6-5.9
			c-0.9-2.1-3.2-1.4-4.9-1.4c-15.3,0-30.6,0-45.8,0c-1.8,0-4.3-1-5.2,1.6c-0.7,2.2,0.2,4.3,1.7,6c1.8,2,4,3.4,6.5,4.4
			C488.1,752.3,490.5,753,492,755z"/>
		<path class="st1" d="M334.2,491.2c-26,10-52,20.1-77.6,31.3c-3.8,1.6-7.3,3.9-11.5,4.5c0-24.3,0-48.7,0-73
			c9.2-0.5,11.2-2.5,11.2-11.2c0-35.4,0-70.8,0-106.2c0-11.7,0-11.7-11.2-12.6c0-22,0-44-0.1-66c0-2.5,0.6-3.1,3.1-3.1
			c19,0.1,38,0.1,57,0.1c4.4,17.9,10.1,35.4,15.4,53.1c3.4,11.4,7.2,22.8,11.3,35.5c2.8-9,4.3-17,7.2-24.6c3.6-9.6,6.2-19.7,9-29.6
			c3.3-11.5,7.7-22.6,10.2-34.4c96.7,0,193.3,0,290,0c3.4,4.2,6.8,8.5,10.3,12.6c0.8,1,1.8,3.1,3.2,0.8c3.1-5.1,7.9-8.8,11.5-13.4
			c24,0,48,0,72,0c5.3,10.9,13.3,20,20,30c0,22.3,0,44.7,0,67c-5.6,1.2-11-1.8-17.3-0.6c5.9,9.7,10.9,19.5,17.3,28.6
			c0,34,0,68,0,102c-2.3-0.5-3.3,1.5-4.3,2.8c-6.8,8.5-14.5,16.3-21.3,24.7c-3.9,4.9-7.6,3.4-11.6,1.4c-15.9-8-32.8-13.4-49.2-19.9
			c-0.6-0.2-1.2-0.5-1.8-0.7c-3.2-3.7-6.4-7.4-9.7-11.1c-0.4,0-0.7-0.1-1.1-0.1l0.1,0.1c-0.3-4-3.8-6.3-5.2-9.8
			c-1.6-4-4.1-5.4-7.6-1.6c-2.6-0.1-4.5-1.8-6.4-3.3c2.6-4.2,6.8-6.8,10-10.4c1.7-1.9,2.8-1.2,3.8,0.6c3.5,5.8,7.5,11.4,10.4,17.6
			c1.9,4.1,3.8,8.8,8.1,10.5c16.9,6.9,34.1,13.4,51.1,20.2c2.3,0.9,3.8,0.8,5.6-1.2c6.3-7.5,12.8-14.9,19.3-22.2
			c1.6-1.8,2.5-3.7,2.5-6.3c-0.1-28.7-0.1-57.3-0.1-86c0-3-0.8-5.5-2.3-8c-4.1-6.8-8.4-13.6-12.2-20.6c-1.8-3.3-4.2-4.7-7.7-5.3
			c-11-1.6-22-3.6-33-5.1c-2.8-0.4-3.5-1.3-3.4-4c0.2-9,0.2-18,0-27c-0.1-3.3,0.6-5,4.4-4.3c3.1,0.5,6.3,0.8,9.4,0.7
			c3.3-0.1,4.4,1.1,4.3,4.4c-0.2,5.7,0.2,11.3-0.1,17c-0.2,3.4,1.1,4.6,4.4,4.9c10.6,1,21.2,2.2,31.7,3.7c3.8,0.6,4.6-0.5,4.6-4
			c-0.1-15.7,0-31.3,0-47c0-2.2-0.2-4.3-1.5-6.2c-3.9-5.6-7.8-11.2-11.4-17c-3.3-5.4-7.6-7-13.9-6.8c-16,0.5-32,0.5-48,0
			c-6.2-0.2-9.6,2.9-12.8,6.9c-2.8,3.4-5.4,7-8,10.6c-1.5,2-2.6,2.7-4.3-0.1c-2.3-3.6-4.7-7.4-7.9-10.2c-2.7-2.3-3.1-7.1-7.9-7.1
			c-28.3,0.1-56.7,0.1-85,0c-3,0-3.6,1.3-3.4,4c0.2,3.4,0.1,6.7,0.1,11.2c-4.7-4-8.1-7.4-10.9-11.3c-2.1-2.9-4.5-3.9-8-3.9
			c-16.7,0.2-33.3,0.1-50,0c-2.8,0-4.7,0.9-6.5,2.9c-3.7,4.1-7.5,8.1-12.4,13.2c0-4.9-0.2-8.1,0.1-11.4c0.3-3.6-0.7-4.9-4.5-4.9
			c-30.8,0.2-61.6,0.2-92.5,0.2c-3.2,0-5,0.9-6,4.3c-4.1,14-8.5,27.9-12.8,41.8c-3.1,10.3-6.1,20.6-9.2,30.9
			c-2.8,9.3-5.6,18.6-8.5,28.6c-0.7-1.1-1-1.4-1.2-1.8c-11-33-21.4-66.2-31-99.6c-0.9-3.2-2.2-4.4-5.8-4.4
			c-12.2,0.3-24.3,0.3-36.5,0c-4.4-0.1-5.7,1.1-5.6,5.5c0.3,14.3,0.3,28.6,0.1,43c0,4.4,0.9,6.5,5.9,5.2c4.3-1.2,6,0.1,6,5.2
			c-0.2,42.2-0.1,84.3-0.1,126.5c0,8.1,0,8.2-7.8,11.1c-2.4,0.9-3.9,1.9-3.9,4.8c0.1,15.7,0.1,31.3,0,47c0,3.5,0.8,4.7,4.5,3.1
			c18-7.9,36.1-15.5,54.6-22.2c2.9-1.1,3.5-2.9,3.5-5.7c-0.1-9.3-0.1-18.7,0-28c0-1.3-1-3.5,0.8-3.9c2-0.5,2.4,1.9,3.1,3.3
			c3.6,7.3,7.3,14.6,10.8,21.9c0.8,1.6,1.6,3.4,3.2,3.5c2.1,0.1,1.9-2.4,2.4-3.7c3-6.8,5.6-13.8,8.6-20.6c1.5-3.5,2.3-7.3,5.4-11.4
			c0,10,0,18.9,0,27.7c-2.9,3.7-5.6,7.6-8.8,11.1C338.7,488,337.3,490.8,334.2,491.2z M709.2,321.1c-0.8,0-1.7,0-2.5,0
			c0,6,0,12.1,0,18.1c0,0.5,0.5,1.3,1,1.5c0.7,0.3,1.4-0.3,1.4-1C709.2,333.5,709.2,327.3,709.2,321.1z"/>
		<path class="st0" d="M358,255c-2.5,11.7-6.8,22.9-10.2,34.4c-2.9,9.9-5.4,19.9-9,29.6c-2.8,7.6-4.4,15.6-7.2,24.6
			c-4-12.7-7.8-24-11.3-35.5c-5.3-17.6-11-35.2-15.4-53.1C322.7,255,340.3,255,358,255z"/>
		<path class="st0" d="M245,324c11.2,0.9,11.2,0.9,11.2,12.6c0,35.4,0,70.8,0,106.2c0,8.6-2,10.7-11.2,11.2
			C245,410.7,245,367.3,245,324z"/>
		<path class="st2" d="M492,755c-1.5-2-3.9-2.7-6-3.6c-2.5-1.1-4.8-2.4-6.5-4.4c-1.5-1.7-2.4-3.8-1.7-6c0.8-2.6,3.3-1.6,5.2-1.6
			c15.3-0.1,30.6-0.1,45.8,0c1.7,0,4-0.8,4.9,1.4c0.9,2.2-0.1,4.2-1.6,5.9c-2.3,2.8-5.2,4.5-8.6,5.5c-1.6,0.5-2.8,0.9-2.5,2.9
			C511.3,755,501.7,755,492,755z"/>
		<path class="st0" d="M765,285c-6.7-10-14.7-19.1-20-30c5.8,0,11.6,0.2,17.3-0.1c2.5-0.1,2.8,0.7,2.7,2.9
			C764.9,266.8,765,275.9,765,285z"/>
		<path class="st0" d="M765,380c-6.3-9.1-11.3-18.9-17.3-28.6c6.2-1.2,11.7,1.9,17.3,0.6C765,361.3,765,370.7,765,380z"/>
		<path class="st0" d="M673,255c-3.6,4.6-8.4,8.3-11.5,13.4c-1.4,2.4-2.4,0.2-3.2-0.8c-3.5-4.2-6.8-8.4-10.3-12.6
			C656.3,255,664.7,255,673,255z"/>
		<path class="st2" d="M667,479.1c3.2,3.7,6.4,7.4,9.7,11.1c-0.6,1.8,1,2.7,1.7,3.9c22.2,35.4,27.7,72.2,9.4,111
			c-0.8,1.6-1.3,2.7,0.8,3.4c3.7,1.4,5,4.7,6.3,8c2.3,5.7,1.1,9.2-4.3,12c-9.9,5.1-20,9.9-29.2,16.3c-10.7,7.5-20.7,15.8-27.5,27.3
			c-1,1.7-3,2.6-3.3,4.9c-0.1,1.2-1.7,2.6-0.4,3.6c1.4,1.2,2.2-0.8,3.2-1.5c10.5-7.9,19-17.8,27.2-27.9c1.9-2.3,3.5-3.9,6.2-0.8
			c1.1,1.4,0.7,2.1,0.1,3.4c-7.2,16.6-17,31.4-31,43.2c-5.4,4.5-11.5,7.9-17.6,11.2c-9.8,5.3-24.7,4.2-31-2.3
			c-12.3-12.8-14.5-24.4-7.1-37.3c9.2-16.1,23.8-26.7,38.4-37.2c1.3-0.9,3.2-1.2,3.4-4c-5.9,0.9-9.5,5.2-13.6,8.3
			c-4,2.9-7.4,6.6-11.1,10c-1.2,1.2-2.4,2.6-4.3,1.6c-1.6-0.9-1-2.6-1-4.1c0.2-6.2,2.3-12.1,3.1-18.2c1.1-8.3,2.2-16.5,1.9-24.8
			c-0.3-7.1,2-14,1.9-21.2c-0.1-3.7-1-5.3-4.9-4.7c3,12.4,1.2,24.7-3.8,35.8c-3,6.7-6.7,13.8-11.7,19.4c-7.4,8.4-9.6,18.6-11.5,28.9
			c-2.3,11.9-4,23.9-5,36.1c-0.4,5.8-2.5,11.3-5.7,16.3c-4.3,6.8-9,13.2-13.9,19.5c-2.2,2.9-4.8,4.2-8.5,3.9
			c-6.8-0.6-13.6-0.9-20.5-1.1c-3.8-0.1-5.5-1.6-5.2-5.5c0.5-5.3,0.6-10.7,1.3-15.9c1.6-11.9,9.7-17.9,21.8-16.6
			c1.8,0.2,5.1,2.2,5.4-0.7c0.4-3.5-3.2-3-5.7-2.8c-16.8,1.4-33.6,1.4-50.4,0c-1.3-0.1-2.7-0.1-4,0c-1.8,0.1-2.8,1.5-2.5,3.1
			c0.2,1.6,1.9,1,2.9,0.8c4.2-0.8,8.1,0.2,12.2,1c7.2,1.5,10.2,6.2,11.7,12.5c1.6,6.5,1.2,13.2,1.6,19.9c0.2,2.4-1,3.7-3.5,3.8
			c-8.1,0.5-16.3,0.9-24.4,1.5c-1.8,0.1-3.4-0.6-4.4-1.9c-8.6-10.9-18.3-21.4-21-35.7c-1.4-7.5-1.6-15.2-2.8-22.8
			c-1.4-9-3.5-17.9-5.1-26.9c-1.9-10.3-9.1-17.7-14.5-25.9c-8.3-12.7-12.2-26.2-11.3-41.3c0.1-1.3,1.6-3.8-1.3-3.9
			c-2.8-0.1-1.7,2.4-1.7,3.7c0.4,19.9,1.5,39.7,6.3,59.2c0.7,2.8,2.1,6.8-0.5,8.4c-2.7,1.7-4.7-2.1-6.7-3.9
			c-5.6-4.9-10.8-10.3-17.6-13.9c-1.5-0.8-2.9-2.1-5-1.6c0.2,1.9,1.6,2.2,2.7,2.9c11.5,7.9,22.6,16.4,31.7,27
			c4.1,4.8,7.5,10.3,10,16.1c3.7,8.6,1.7,16.8-3.3,24.6c-10.3,16.2-27.4,16-42.2,7c-13.5-8.2-25-18.3-32.9-32.4
			c-2.8-5-5.8-9.9-8.8-14.8c-1.1-1.7-1.6-3.7-1.7-5.7c-0.1-1.8,0.7-3.5,2.4-4c1.6-0.5,2,1.2,2.9,2.2c8.7,10.6,18.1,20.7,28.8,29.4
			c0.8,0.7,1.5,1.9,3.3,1.3c-0.5-5.1-4.1-8.7-6.8-12.6c-10-14.4-23.5-24.7-38.9-32.5c-5.5-2.8-11-5.5-16.4-8.5
			c-5.4-3-5.4-13.2-0.3-16.5c1.3-0.8,2.1-0.5,3,0.5c0.8,0.9,1.7,1.6,0.3,2.8c-1,0.9-1.5,2.2-1.3,3.5c0.3,1.9-1.2,4.8,1.9,5.5
			c2.8,0.6,2.7-2.3,3.6-3.9c0.3-0.6,0.5-1.2,0.9-1.8c0.9-1.2,1.4-3.3,3.7-2.4c2.3,1,2.1,2.6,1.2,4.5c-0.5,1.3-2.1,3-0.4,4
			c2,1.2,2.7-1.1,3.6-2.4c0.5-0.7,0.9-1.4,1.4-2.1c1.4-1.7,3.2-3.4,5.5-2.1c2.6,1.6,0.3,3.5-0.5,5.1c-0.4,0.9-1.1,1.7-1.5,2.6
			c-0.4,0.9-0.7,2,0.4,2.7c1,0.6,2,0.2,2.7-0.6c1.6-1.7,3.1-3.5,4.7-5.2c1.4-1.5,3.2-2,4.8-0.4c1.7,1.7,0.3,3-0.8,4.2
			c-0.2,0.2-0.5,0.5-0.7,0.7c-0.8,1.3-3.6,2.2-2.2,3.8c1.8,1.9,3-0.7,4.4-1.7c2.3-1.7,4.8-3,7.7-3.1c1.1,0,2.5-0.1,2.9,1.3
			c0.4,1.3-0.2,2.2-1.1,3c-1.9,1.6-6.1,3.1-4,5.7c2,2.5,4.1-1.9,6.4-2.8c1.4-0.5,2.6-1.6,4-2c1.8-0.5,3.9-0.5,4.9,1.3
			c1.1,1.9-0.9,2.9-2.1,3.9c-0.6,0.5-1.3,1.1-1.9,1.6c-1.2,1-2.4,2.2-1.3,3.8c1.2,1.8,2.9,1,4.4,0.1c2.2-1.3,3.6-3.9,6.8-3.8
			c1.6,0.1,3.2,0.2,3.9,1.5c0.7,1.3-0.4,2.4-1.3,3.5c-1.4,1.8-5.1,3.3-2.5,5.9c2.9,2.9,5-0.4,6.9-2.4c3.5-3.6,5.7-3.3,7.5,1.3
			c0.9,2.5,1.5,5.1,2.2,7.7c0.6,2.3,1.6,4.2,4.1,4.4c1.8,0.2,3.8,0.1,4.8-1.8c1.2-2.3,0-4-1.3-5.9c-6.2-8.9-15.3-13.9-24.2-19.4
			c-6.8-4.2-13.6-8.2-20.6-11.8c-1.5-0.7-3.6-1.5-2.5-3.5c1-2,3.1-2.2,5.2-1.3c3.4,1.5,5.7,5,9.9,5.2c2.5,0.1,5.5,1.2,6.5-1.9
			c0.9-2.8-1.1-5-3.8-6.3c-0.6-0.3-1.3-0.5-1.8-0.9c-1.5-1.1-4.5-0.1-4.7-2.8c-0.3-3.2,3-2.7,4.6-3.7c3.6-2.1,7.8-3.2,5.9-9
			c-2.1-6.7-6.4-10.7-12.2-10.5c-9.8,0.3-18.8,3.5-27.3,8.2c-2.3,1.3-5.2,3.9-6.8,0.9c-1.5-2.7-2.2-6.7,1.3-9.5
			c8.6-6.8,18.7-9.5,29.3-11.1c1.2-0.2,3.1,0.6,3.1-1.4c0-2.1-2-1.9-3.4-2c-8.3-0.6-16.1,1.4-23.9,4.3c-2.7,1-5.4,2.2-8.2,3.1
			c-2.9,1-4.8,0.7-5.6-1.6c-0.9-2.5-0.3-5.3,2.4-6.9c5.1-2.9,10.4-5.2,16.1-6.7c4.3-1.1,8.5-2.3,12.8-3.9
			c-8.3-2.7-16.8-3.7-25.4-4.4c-4.9-0.4-6.2-3.3-3.6-7.4c0.8-1.3,1.6-1.9,3.5-1.8c8.9,0.3,17.8-0.4,26.9,2.8
			c-0.2-3.3-1.8-4.6-4.1-5.5c-5.8-2.3-11.9-3.9-18-5.3c-1.8-0.4-5,0.2-4-3.4c0.9-3,1.8-6.5,6.2-5.5c2.7,0.6,5.3,1.6,8.8,2.6
			c-2.1-5-3.9-9.2-5.9-14c-9.9,10.2-16.1,21.9-18.9,35.4c-3.3,15.7-1.5,31.1,4,46.2c1.2,3.4,2.9,6.3,6.6,7.6
			c1.4,0.5,2.9,1.5,2.3,3.3c-0.5,1.6-2.1,1.4-3.4,1.3c-1.8-0.1-3.7,0-5.5-0.4c-2-0.4-7.4,1.2-2.9-4c0.3-0.3-0.4-1.5-0.7-2.2
			c-11-19.5-12.1-40.5-9.5-62c2.2-17.8,8.8-34,18.7-48.8c0.7-1,1.6-1.8,1.1-3.1c3.2-0.4,4.6-3.2,6.4-5.2c3.2-3.5,5.9-7.4,8.8-11.1
			c4.8-1.7,8.2-5.4,12.2-8.6c-3.6,1-4.7-0.1-4.6-3.6c0.3-7.5,0.5-15-0.1-22.5c-0.4-5,1.5-7.2,6.1-7.5c3.9-0.3,4.6-2.5,4.6-6
			c-0.1-17.7,0.1-35.3-0.1-53c0-4.7,0.8-9.5-0.8-15.3c-11.4,36.2-22.5,71.3-34,107.9c-12.6-34-23.5-66.9-36.3-99.7
			c-1.6,2-1.1,3.4-1.1,4.6c-0.1,24.5-0.1,49-0.1,73.5c0,8.6,0.1,8.7,8.3,6.1c2.8-0.9,4.2-0.9,4.1,2.9c-0.3,9.3-0.2,18.7-0.1,28
			c0,2.5-0.6,3.8-3.1,4.8c-13.6,5.4-27.1,10.9-40.7,16.5c-2.9,1.2-3.8,0.6-3.7-2.6c0.2-9.5,0.2-19-0.1-28.5c-0.2-4.7,1-7.4,6-8.3
			c4-0.7,6-2.9,6-7.8c-0.3-46.5-0.2-93-0.2-139.5c0-8.2-0.1-8.3-8.2-7.8c-2.6,0.2-3.5-0.4-3.5-3.1c0.1-10.5,0.2-21,0-31.5
			c-0.1-3.4,1.3-3.7,4.1-3.7c7.7,0.2,15.3,0.4,23,0c4.7-0.2,6.6,1.3,7.9,5.8c7.3,25.5,15,50.8,23.5,76c2.8,8.2,5.5,16.5,8.2,24.7
			c1.9,5.7,3.9,11.5,6.3,18.5c1.3-5,2.2-8.8,3.2-12.5c3.3-11.8,6.5-23.7,10.4-35.3c3.8-11.4,6.1-23.3,10.2-34.7
			c4.3-12.2,7.5-24.9,11-37.5c1-3.7,3-5,6.7-5c8.2,0.2,16.3,0.3,24.5,0.1c3.2-0.1,3.5,1.4,3.5,3.9c-0.1,6.5-0.4,13,0.1,19.5
			c0.4,5.3-1.1,7.7-6.7,7c-2.7-0.3-5.3-0.3-5.3,4.3c0.2,37.5,0.1,75,0.2,112.5c0,8.2,0.1,8.3,7.8,6.6c3.3-0.7,4.1,0.1,4,3.3
			c-0.2,6.7-0.1,13.3-0.2,20c0,2.8,0.1,5,3.9,4.5c3-0.3,6,0.1,5.7-4.6c-0.4-6.6,0.2-13.3-0.2-20c-0.3-4.5,0.9-7,5.7-7.1
			c4-0.1,5.3-2.1,5.3-6c-0.1-36,0-72-0.1-108c0-6.5-0.2-6.7-6.6-6.2c-2.9,0.2-4.2-0.1-4.1-3.5c0.2-7.5,0.1-15,0-22.5
			c0-2.5,0.9-3.6,3.5-3.6c13.2,0.1,26.3,0.1,39.5,0c3.1,0,3.6,1.3,3.5,3.9c-0.1,6.2-0.4,12.4,0.1,18.5c0.3,4.7-0.8,7.1-5.9,6.3
			c-4.6-0.7-5.4,1.5-5.4,5.7c0.1,34.8,0,69.7,0,104.5c0,6.4,0,6.5,6.4,5.5c3.3-0.5,5,0.1,4.8,3.9c-0.2,6.8-0.2,13.7,0,20.5
			c0,2.6-0.6,3.8-3.5,4.2c-8.2,1.2-16.4,2.7-24.6,4.2c-4.7,0.9-9.4,1.9-14.1,2.9c0,0.5,0.1,0.9,0.1,1.4c8.1-1,15.7,2.1,23.6,2.4
			c4.1,1.6,8.2,3.3,12.4,4.9c12.6,6.2,24,14.1,34,23.9c12,11.7,28.9,11.3,40.6-1c7.9-8.3,17.2-14.7,27.3-20.1c1.9-1,5,0.6,5.7-2.8
			c3.5-2.7,8.8-1.7,11.6-5.8c8.9,0.6,17.5-2.4,26.4-2.4c-10.8-3.2-21.8-4.9-32.8-6.7c-2.3-0.4-4.1-0.7-4-3.8c0.2-7.5,0.1-15,0-22.5
			c0-2.1,0.5-2.9,2.8-2.8c9.2,0.3,9.2,0.3,9.1-8.9c0-0.8,0-1.7,0-2.5c0-33.1-0.1-66.3,0.1-99.4c0-4.2-1.2-5.8-5.3-5.3
			c-0.8,0.1-1.7-0.1-2.5,0c-3.2,0.4-4.4-0.9-4.2-4.2c0.3-6.3,0.4-12.7,0-19c-0.3-4.5,1.1-5.7,5.5-5.6c21.3,0.2,42.6,0.6,63.9-0.1
			c8.5-0.3,13.4,2.7,17.9,9.3c3.3,4.9,4.9,9.6,4.9,15.6c-0.2,46.8-0.4,93.6,0.1,140.4c0.1,8.7-1.8,15.1-8.7,20.6
			c-6.3,5.1-5.8,5.8,2.4,8.4c1.9,1.5,3.8,3.2,6.4,3.3c3.1,5.1,8.8,7.3,12.8,11.4c0,0-0.1-0.1-0.1-0.1
			C666.3,479,666.7,479.1,667,479.1z M597.6,457.9c-9.5,0.8-19.4,2.6-29.3,6.5c-11.9,4.8-22,11.7-31.8,19.5
			c-7.7,6.1-8.7,11.7-4.4,20.6c2.7,5.6,6.1,10.7,10.5,14.9c6.3,6,13,11.6,22.3,12.7c4.6,0.6,6.4-2.6,7.8-5.6c1.5-3.3-2.4-3.1-4-4.4
			c-0.5-0.4-1.2-0.6-1.7-1c-8.5-8.6-17.1-17.2-23.3-27.8c-0.9-1.5-1.3-3.1-1.1-4.7c0.3-3,2.8-4,5-5c1.7-0.7,2.6,0.8,3.3,2.2
			c5.4,10.6,13.7,18.7,22.1,26.8c1.8,1.7,4,3.1,6.2,4.1c2.8,1.2,5.3-0.2,7-2.3c1.7-2,0.7-4.1-0.8-5.8c-7.7-9.1-15.3-18.3-23.3-27.2
			c-2.5-2.8-4-5.4-1.3-8.1c2.9-2.9,6-1.7,8.5,1.4c3.8,4.6,7.7,9.2,11.7,13.7c4.5,5.1,9,10.2,13.7,15.2c2.8,3,6.3,3,9.5,0.7
			c3.7-2.7,0.4-5-0.8-7.2c-5.1-9.1-11.8-16.9-19.6-23.8c-2-1.8-3.4-4.1-0.7-6.4c2.2-1.9,4.8-3.4,7.5-0.7c2.4,2.3,4.8,4.6,7,7
			c6.8,7.4,12.6,15.5,17,24.6c1.6,3.4,4.4,3.2,7.2,2.2c3.1-1.1,2.3-3.6,1.5-5.8c-0.6-1.7-1.4-3.4-2-5.1c-2.8-7.3-7.5-13.6-11.7-20.1
			c-2.1-3.2-0.5-4.7,2.3-5.4c3.4-0.9,5.1,1.9,6.7,4.1c6.5,8.9,11.7,18.5,15.2,29c0.7,2,1.6,4.5,4.4,3.6c2.4-0.8,1.3-3.1,1.1-4.8
			c-0.8-7.1-3.4-13.8-5.7-20.6c-0.5-1.5-1.7-2.7,0.6-4.1c2-1.2,3.3-0.8,4.8,0.5c3.1,2.9,4.5,6.8,5.9,10.7c2.2,6.3,3.1,12.9,4.6,19.4
			c0.6,2.7,2.4,4.2,5.1,3.7c3.3-0.5,2.3-3.2,1.9-5.2c-0.9-4.6-1.9-9.1-2.9-13.6c-0.3-1.3-1-2.7,0.5-3.6c1.3-0.8,2.2,0.4,3,1.1
			c0.9,0.7,1.6,1.7,2.2,2.6c3.9,6.2,5.1,13.2,5,20.4c0,1.4-0.6,3.3,1.3,3.9c1.9,0.6,3.6-0.4,4.8-1.9c3-3.3,3.4-10.2,0.1-13.9
			c-3.5-3.8-6.1-8.3-10.1-11.9C642.7,467.1,622,459.1,597.6,457.9z M413.8,458c-20.9,0.7-40,7-56.6,19.9
			c-6.6,5.1-12.8,10.8-16.8,18.3c-2.5,4.7-1.4,10.8,1.9,13.3c1.2,0.9,2.4,1.3,3.7,0.9c1.8-0.5,1.2-2.1,1.3-3.4c0.3-3,0.1-6,0.8-8.9
			c1.2-5.1,1.8-10.5,5.8-14.6c1-1,2.2-1.8,3.5-1.2c1.5,0.7,1,2.4,0.7,3.6c-0.9,4.6-2.2,9.1-2.9,13.7c-0.3,1.8-1.7,4.7,1.7,5.3
			c3.2,0.6,4.9-1.5,5.5-4.4c0.6-2.9,0.9-5.9,1.5-8.8c1.3-6.8,3.1-13.4,6.9-19.4c1.4-2.3,3.5-3.3,5.9-2.2c2.4,1.1,2,3,1.1,5.4
			c-2.4,6.5-4.8,13.2-5.8,20.1c-0.2,1.6-1.1,4,1.4,4.7c2.5,0.7,3.4-1.4,4.2-3.3c2-4.9,3.8-9.9,6.1-14.8c2.8-6.2,6.4-11.9,11-16.9
			c2-2.2,4.4-3.1,7-1c2.6,2.1,0.4,3.8-0.7,5.6c-4.5,7.5-9.9,14.6-12.6,23.2c-0.8,2.6-2.5,5.2,1.2,6.7c3.4,1.4,5.9,0.6,7.6-3.1
			c5.2-10.7,12.3-20.1,20.9-28.3c4.4-4.2,7.6-4.7,10.1-1.4c3.3,4.2-0.8,6.3-3.2,8.5c-7.6,6.7-13.5,14.7-18.5,23.4
			c-1.8,3.1-1.1,4.8,2.1,6.2c4.6,2.1,7.4-0.8,9.9-3.7c7.9-9,15.5-18.2,23.2-27.3c2.2-2.6,5-3.6,7.8-1.5c2.8,2.1,2.9,5,0.5,7.8
			c-4.4,5.1-8.8,10.2-13.2,15.2c-3.8,4.4-7.7,8.6-11.4,13c-1.9,2.2-2.3,4.7,0.3,6.5c1.9,1.3,3.2,4.2,7,1.5c11.1-8,19.8-18,27-29.5
			c2.5-4.1,3.7-4.4,7.3-1.2c3.1,2.8,1.6,5.8,0.1,8.2c-6.8,10.6-14.6,20.3-24.7,27.8c-5.2,3.9-5.3,5.5-0.4,9.5c1.9,1.6,3.8,1,5.7,0.6
			c16.6-4,25.7-16.3,32.6-30.5c2.8-5.9,1.4-11.6-3.9-16.2c-4.3-3.7-8.8-7-13.4-10.1C448.5,464.9,432.3,458.2,413.8,458z
			 M652.8,559.9c3.7,1.2,6,2.2,8.6,2.7c7.4,1.6,14.4,4.2,21.2,7.7c2.9,1.5,3.4,4,2.2,6.8c-1.3,3-3.7,2.2-6,1.3
			c-3.3-1.2-6.5-2.6-9.7-3.8c-7.1-2.7-14.5-3.5-22.1-2.8c-1.1,0.1-2.6,0-2.7,1.6c-0.1,1.7,1.4,1.5,2.5,1.6c1.5,0.2,2.9,0.6,4.4,0.8
			c8.7,1.2,16.6,4.6,24,9.2c2.7,1.7,4.1,7.5,2.3,10.1c-2.6,3.7-4.8,0.3-6.7-0.8c-7.9-4.3-16.2-7.1-25.1-7.9
			c-7.3-0.7-12.7,3.4-14.1,10.6c-0.7,3.6-1,7.1,4.2,7.8c1.7,0.2,2.8,2.2,4.8,2.4c1.1,0.2,1.6,1.3,1.6,2.3c0,1.2-1,1.5-2,1.9
			c-2.4,1-5.1,1.6-7,3.7c-1.3,1.5-2.3,3-1.3,4.9c0.9,1.7,2.7,1.9,4.4,1.7c1.6-0.2,3.2-0.8,4.7-1.5c2.5-1.2,4.9-2.8,7.4-4
			c2-0.9,4.2-0.4,5.2,1.5c1.3,2.5-1.6,3.2-2.8,3.7c-8.5,3.3-16,8.3-23.7,13c-8.4,5.1-16.6,10.4-22,19c-1.4,2.3-1.5,4.7,0.9,6.1
			c2.4,1.4,4.8,1,6.5-1.5c1.3-1.9,1.3-4.1,1.8-6.2c2-8.8,4-9.5,10.5-3.6c0.6,0.5,1.2,1.2,2,1.4c1.3,0.5,2.7,0.4,3.6-0.8
			c0.8-1.1,0.5-2.2-0.3-3.2c-0.7-0.8-1.3-1.5-2-2.2c-1.4-1.5-3.4-3.1-1.7-5.1c1.7-2,4.2-1.5,6.3,0c1.9,1.3,3.7,2.8,5.7,4
			c1.2,0.7,2.7,0.6,3.4-1c0.6-1.3-0.2-2.2-1.2-2.9c-0.7-0.5-1.4-0.9-2.1-1.4c-1.6-1.2-4.8-2-3.2-4.5c1.2-1.9,4.2-2.5,6.7-0.9
			c1.9,1.2,3.8,2.6,5.8,3.8c1.2,0.8,3,1,3.7,0c1.1-1.5-0.6-2.1-1.7-2.9c-1-0.6-1.9-1.4-2.7-2.2c-0.8-0.9-2.5-1.6-1.8-3.2
			c0.6-1.4,2.2-1.1,3.5-1.3c4-0.5,6.3,2.2,9.1,4.3c0.9,0.7,2.2,2.2,3.4,0.7c0.9-1.1-0.5-2.1-1.3-2.9c-0.4-0.5-1.1-0.8-1.5-1.2
			c-1.3-1.2-2.9-3-1.7-4.3c1.7-1.8,4.2-2.5,6.3,0.3c1.3,1.7,2.8,3.3,4.3,4.8c0.8,0.8,1.8,0.8,2.7,0.2c0.9-0.6,0.5-1.5,0.2-2.2
			c-0.4-0.9-1-1.7-1.4-2.6c-0.6-1.5-3-3.4-0.5-4.7c1.9-1,4.2-0.5,5.7,2c0.9,1.6,2,3.5,4.3,3.7c0.9-1.4,0.6-2.6-0.4-3.7
			c-1.6-1.7-1.1-2.7,0.7-3.9c2-1.4,2.7-0.4,4,1c1.3,1.3,1.7,2.8,2.2,4.3c0.5,1.5,1.1,2.4,2.7,2.1c1.8-0.3,2.3-1.6,2.3-3.3
			c0-5.6-5.4-10.1-10.8-8.8c-1.4,0.3-2.7,1.7-3.7-0.4c-0.9-2,0.4-3.1,2.1-3.9c3.4-1.6,5.6-4.1,6.8-7.6c7-20.2,8.2-40.3-0.6-60.3
			c-3.5-8-8-15.4-15.1-21.9c0.3,5.9-3.6,9.5-5.3,14.5c3.4-1,6.4-2.1,9.4-2.7c2.7-0.5,4.2,1,4.9,3.8c0.6,2.4-0.1,3.2-2.3,4.3
			c-5.4,2.7-11.5,3.1-17,5.4c-3.8,1.6-4.6,2.2-5.6,5.9c0.7-0.1,1.4-0.2,2-0.3c7.5-1.3,14.9-3.3,22.7-2.9c4.2,0.3,6.7,2.4,6.7,6.4
			c0,4.3-3.7,3.5-6.3,3.7C669.8,556.3,661.9,557.3,652.8,559.9z M628.8,364C628.8,364,628.8,364,628.8,364
			c-0.1-19.5-0.2-38.9,0-58.4c0-3.6-1.1-4.6-4.5-4.6c-8-0.1-16-0.4-23.9-1c-3.7-0.3-4.5,1.1-4.5,4.5c0.1,37.3,0.1,74.6,0,111.8
			c0,2.9,1,4.1,3.8,4.7c8.2,1.6,16.3,3.2,24.4,5.3c3.9,1,4.8,0.2,4.8-3.7C628.7,402.9,628.8,383.4,628.8,364z M477.1,621.7
			c-3-4.2-6.1-6.8-9.1-9.7c-3.2-3-5.9-3.1-9-0.1c-3.9,3.7-8.6,4.6-13.9,3.6c-9.9-1.9-20.3-18.2-17-28.5c0.5-1.5,0.1-3.6,2.3-4
			c1.8-0.3,2.5,1.3,3.5,2.4c8.4,10.4,17,20.3,31.5,22c1.6,0.2,3.4,1.5,4.3-0.3c0.9-1.8-1.1-2.9-2.4-3.9c-0.6-0.5-1.4-0.9-2.1-1.1
			c-12-3-20-11.3-27.2-20.6c-2-2.6-10.3-4.2-13-2.6c-0.8,0.5-1,1.2-1.1,2.1c-2.5,16.9,2.9,33.5,19.8,41c3.9,1.7,6.1,4.2,7.6,7.9
			c5.4,12.9,6.8,26.3,5.8,40.1c-0.3,3.6,1.1,5.3,4.4,6.6c3.4,1.3,4.9-0.2,6.6-2.5c1.1-1.5,2.3-2.8,3.5-4.2c7-8.3,7-8.3,1.3-17.7
			c-0.8-1.3-1.9-2.7-0.8-4.1c1.2-1.5,2.7-0.3,4.1,0.1c1.8,0.5,4.1,3,5.2,1.1c1.2-1.9-1.3-4.1-2.6-5.9c-0.6-0.9-2-1.1-2.8-1.9
			c-1.4-1.5-4.7-2.1-4-4.5c0.9-2.7,3.8-0.7,5.8-0.9c1.1-0.1,2.5,0.7,3.2-0.6c0.8-1.6-0.5-2.5-1.6-3.3c-2.8-2-5.8-3.9-8.6-6
			c-1-0.7-2.8-1.2-2.4-2.8c0.4-1.5,2-1.4,3.4-1.4C473.2,622,474.8,621.9,477.1,621.7z M534.6,621.7c2,0.2,3.3,0.2,4.6,0.4
			c1.4,0.2,3.3-0.5,3.7,1.5c0.3,1.9-1.6,2.3-2.8,3.1c-2.9,2-5.8,3.9-8.7,5.9c-0.8,0.6-1.5,1.4-1.2,2.5c0.4,1.3,1.5,0.9,2.5,0.9
			c1,0,2-0.1,3,0c1.4,0.1,3.4-0.9,3.9,1.1c0.5,1.9-1.6,2.3-2.7,3.1c-2.5,1.9-5.2,3.7-6.8,6.5c-0.4,0.8-0.4,2-0.1,2.9
			c0.3,0.9,1.4,0.8,2.1,0.1c2.2-2.2,5.8-2.6,7.2-0.9c1.9,2.2-1.5,4.2-2.8,6.1c-4.3,6.5-4.3,7,1,12.5c2.3,2.4,4.4,5,6.4,7.6
			c2,2.5,4.1,2.7,7,1.5c3.4-1.5,3.4-4,3.3-6.9c-0.5-13.2-0.3-26.3,5.5-38.7c1.9-4.1,4-7.4,8.5-9c6.2-2.2,10.5-6.5,14.1-12.1
			c5-7.7,6.3-16,5.6-24.8c-0.2-2.1,0.9-5.8-2-5.9c-3.9-0.1-8.8-2.9-12,1.7c-7.1,10.2-15.9,18.2-28.2,21.8c-3,0.9-5.3,3-4.9,7.3
			c3.2-1.7,5.8-3.6,9.1-3.8c6.9-0.4,12.3-3.9,16.9-8.6c3.8-3.9,7.4-8.1,11-12.2c0.9-1,1.7-2.2,3.3-1.9c1.7,0.3,1.5,1.9,1.9,3.1
			c2.2,7.2-0.1,13.6-4.1,19.3c-7.9,11.5-17,12.9-28.3,5.1c-1.3-0.9-2.7-2-4.1-0.8C542.3,613.2,537.6,616,534.6,621.7z M438.5,598
			c-3.3,0.9-2.6,4-2.7,5.8c-0.1,1.6,2.2,4.1,4.2,3.9c2-0.3,2.3-3.1,2.1-4.9C441.9,600.5,440.3,599,438.5,598z M574.6,602.1
			c-0.2-0.8,0.2-3.7-2.1-3.7c-1.7,0.1-3.8,2.3-3.4,4.7c0.3,1.7,0.2,4.6,2.7,4.4C573.5,607.4,575.2,605.6,574.6,602.1z"/>
		<path class="st0" d="M646.8,464.3c-8.2-2.6-8.6-3.3-2.4-8.4c6.9-5.6,8.7-12,8.7-20.6c-0.4-46.8-0.3-93.6-0.1-140.4
			c0-6-1.5-10.6-4.9-15.6c-4.5-6.7-9.4-9.6-17.9-9.3c-21.3,0.7-42.6,0.4-63.9,0.1c-4.4,0-5.8,1.2-5.5,5.6c0.4,6.3,0.3,12.7,0,19
			c-0.1,3.3,1,4.6,4.2,4.2c0.8-0.1,1.7,0.1,2.5,0c4.1-0.5,5.4,1.1,5.3,5.3c-0.2,33.1-0.1,66.3-0.1,99.4c0,0.8,0,1.7,0,2.5
			c0.1,9.2,0.1,9.3-9.1,8.9c-2.3-0.1-2.9,0.7-2.8,2.8c0.1,7.5,0.1,15,0,22.5c-0.1,3.1,1.7,3.4,4,3.8c11,1.8,22,3.5,32.8,6.7
			c-8.9,0-17.5,3-26.4,2.4c-4.6-1.6-9.4-2-14.1-2.7c-2.7-0.4-3.9-1.3-3.9-4.5c0.1-3.3,0.7-6.8-0.7-10.7c-2.9,3-5.7,5.4-7.8,8.4
			c-2.8,4.2-6.4,4.9-11.1,4.4c-15.9-1.5-31.9-1.4-47.8-0.3c-3.5,0.2-6-0.9-8.3-3.4c-3.4-3.8-6.8-7.5-11.2-10.9
			c-1.3,4.3-0.5,8.3-0.5,12.2c0,2.7-0.9,3.6-3.6,4c-7.6,1.3-15.3,1.9-22.6,4.4c-7.9-0.4-15.5-3.4-23.6-2.4c0-0.5-0.1-0.9-0.1-1.4
			c4.7-1,9.4-2,14.1-2.9c8.2-1.5,16.4-3,24.6-4.2c2.9-0.4,3.5-1.6,3.5-4.2c-0.1-6.8-0.2-13.7,0-20.5c0.1-3.9-1.5-4.4-4.8-3.9
			c-6.4,1-6.4,0.9-6.4-5.5c0-34.8,0.1-69.7,0-104.5c0-4.2,0.7-6.4,5.4-5.7c5,0.8,6.2-1.6,5.9-6.3c-0.4-6.1-0.2-12.3-0.1-18.5
			c0-2.6-0.5-4-3.5-3.9c-13.2,0.1-26.3,0.1-39.5,0c-2.6,0-3.5,1-3.5,3.6c0.1,7.5,0.2,15,0,22.5c-0.1,3.4,1.2,3.7,4.1,3.5
			c6.4-0.5,6.6-0.3,6.6,6.2c0.1,36,0,72,0.1,108c0,3.9-1.4,5.9-5.3,6c-4.7,0.1-5.9,2.6-5.7,7.1c0.4,6.6-0.2,13.3,0.2,20
			c0.3,4.8-2.7,4.3-5.7,4.6c-3.8,0.4-4-1.8-3.9-4.5c0.1-6.7,0-13.3,0.2-20c0.1-3.2-0.7-4.1-4-3.3c-7.7,1.8-7.8,1.6-7.8-6.6
			c0-37.5,0.1-75-0.2-112.5c0-4.6,2.6-4.7,5.3-4.3c5.7,0.7,7.1-1.7,6.7-7c-0.5-6.5-0.2-13-0.1-19.5c0-2.5-0.3-4-3.5-3.9
			c-8.2,0.2-16.3,0.1-24.5-0.1c-3.7-0.1-5.7,1.3-6.7,5c-3.5,12.5-6.6,25.2-11,37.5c-4,11.4-6.3,23.3-10.2,34.7
			c-3.9,11.7-7.1,23.5-10.4,35.3c-1,3.7-1.9,7.4-3.2,12.5c-2.4-7-4.3-12.7-6.3-18.5c-2.8-8.2-5.4-16.5-8.2-24.7
			c-8.5-25.1-16.2-50.5-23.5-76c-1.3-4.5-3.3-6.1-7.9-5.8c-7.6,0.4-15.3,0.2-23,0c-2.8-0.1-4.2,0.3-4.1,3.7c0.2,10.5,0.2,21,0,31.5
			c0,2.7,0.8,3.3,3.5,3.1c8.2-0.5,8.2-0.4,8.2,7.8c0,46.5-0.1,93,0.2,139.5c0,4.9-2,7.1-6,7.8c-5,0.9-6.2,3.6-6,8.3
			c0.3,9.5,0.3,19,0.1,28.5c-0.1,3.2,0.8,3.8,3.7,2.6c13.5-5.6,27.1-11.2,40.7-16.5c2.5-1,3.1-2.4,3.1-4.8c-0.1-9.3-0.2-18.7,0.1-28
			c0.1-3.8-1.4-3.7-4.1-2.9c-8.2,2.5-8.3,2.5-8.3-6.1c0-24.5,0-49,0.1-73.5c0-1.2-0.5-2.6,1.1-4.6c12.8,32.8,23.8,65.7,36.3,99.7
			c11.5-36.6,22.6-71.7,34-107.9c1.6,5.8,0.8,10.6,0.8,15.3c0.1,17.7-0.1,35.3,0.1,53c0,3.5-0.6,5.7-4.6,6c-4.5,0.4-6.4,2.6-6.1,7.5
			c0.5,7.5,0.4,15,0.1,22.5c-0.1,3.5,1,4.6,4.6,3.6c-4.1,3.2-7.5,6.9-12.2,8.6c0-8.8,0-17.6,0-27.7c-3,4.1-3.8,7.9-5.4,11.4
			c-3,6.8-5.6,13.8-8.6,20.6c-0.6,1.3-0.4,3.8-2.4,3.7c-1.6-0.1-2.4-1.9-3.2-3.5c-3.5-7.4-7.1-14.6-10.8-21.9
			c-0.7-1.4-1.1-3.7-3.1-3.3c-1.8,0.4-0.8,2.6-0.8,3.9c-0.1,9.3-0.2,18.7,0,28c0,2.8-0.5,4.6-3.5,5.7c-18.4,6.8-36.6,14.3-54.6,22.2
			c-3.8,1.7-4.6,0.4-4.5-3.1c0-15.7,0.1-31.3,0-47c0-3,1.5-3.9,3.9-4.8c7.8-3,7.8-3,7.8-11.1c0-42.2-0.1-84.3,0.1-126.5
			c0-5.1-1.7-6.4-6-5.2c-4.9,1.4-5.9-0.7-5.9-5.2c0.2-14.3,0.2-28.7-0.1-43c-0.1-4.5,1.2-5.6,5.6-5.5c12.2,0.3,24.3,0.3,36.5,0
			c3.6-0.1,4.9,1.1,5.8,4.4c9.6,33.4,20,66.6,31,99.6c0.1,0.4,0.5,0.7,1.2,1.8c3-10,5.8-19.3,8.5-28.6c3.1-10.3,6.1-20.7,9.2-30.9
			c4.2-13.9,8.7-27.8,12.8-41.8c1-3.4,2.7-4.3,6-4.3c30.8,0,61.6,0,92.5-0.2c3.9,0,4.9,1.3,4.5,4.9c-0.3,3.2-0.1,6.5-0.1,11.4
			c4.8-5.2,8.7-9.1,12.4-13.2c1.8-2,3.7-3,6.5-2.9c16.7,0.1,33.3,0.1,50,0c3.5,0,5.9,1,8,3.9c2.8,3.9,6.1,7.3,10.9,11.3
			c0-4.4,0.2-7.8-0.1-11.2c-0.2-2.7,0.4-4,3.4-4c28.3,0.1,56.7,0,85,0c4.8,0,5.3,4.8,7.9,7.1c3.2,2.8,5.7,6.5,7.9,10.2
			c1.7,2.8,2.8,2.1,4.3,0.1c2.7-3.5,5.2-7.1,8-10.6c3.3-4.1,6.7-7.1,12.8-6.9c16,0.5,32,0.5,48,0c6.3-0.2,10.6,1.4,13.9,6.8
			c3.6,5.8,7.5,11.4,11.4,17c1.3,1.9,1.5,4,1.5,6.2c0,15.7-0.1,31.3,0,47c0,3.5-0.8,4.5-4.6,4c-10.5-1.5-21.1-2.7-31.7-3.7
			c-3.3-0.3-4.6-1.5-4.4-4.9c0.3-5.7-0.1-11.3,0.1-17c0.1-3.3-1-4.5-4.3-4.4c-3.1,0.1-6.3-0.2-9.4-0.7c-3.8-0.7-4.5,1-4.4,4.3
			c0.2,9,0.2,18,0,27c-0.1,2.7,0.7,3.6,3.4,4c11,1.6,22,3.5,33,5.1c3.6,0.5,5.9,2,7.7,5.3c3.8,7,8,13.8,12.2,20.6
			c1.5,2.5,2.3,5,2.3,8c0,28.7,0,57.3,0.1,86c0,2.5-0.8,4.4-2.5,6.3c-6.5,7.3-13,14.7-19.3,22.2c-1.7,2-3.2,2.2-5.6,1.2
			c-17-6.8-34.1-13.2-51.1-20.2c-4.4-1.8-6.2-6.4-8.1-10.5c-2.9-6.2-6.9-11.8-10.4-17.6c-1-1.7-2.1-2.5-3.8-0.6
			C653.7,457.6,649.5,460.2,646.8,464.3z M724.3,425C724.3,425,724.3,425,724.3,425c0,8.8-0.1,17.7,0,26.5c0,3-0.8,3.8-3.7,2.8
			c-8.5-2.9-17.1-5.7-25.6-8.3c-2.7-0.8-3.6-2.3-3.6-5.1c0.1-6.2,0-12.3,0-18.5c0-2.1-0.4-3.3-2.8-3.8c-6-1.3-12-2.8-17.9-4.6
			c-3.6-1.1-4.7-0.3-4.6,3.5c0.2,8.7,0.2,17.3,0,26c-0.1,3.9,0.8,7.1,2.9,10.3c4,6.3,7.7,12.8,11.6,19.1c1,1.6,1.8,3.2,4,4.1
			c14.5,5.4,28.9,11.1,43.2,16.8c2.6,1,4.2,0.9,6-1.3c4.3-5.2,8.8-10.4,13.4-15.4c2.1-2.3,2.8-4.7,2.8-7.7c-0.1-26.7-0.1-53.3,0-80
			c0-2.6-0.4-5.3-1.7-7.1c-4.3-5.5-6.9-12-10.7-17.8c-1.8-2.7-3.8-3.9-6.7-4.4c-12-1.9-24-3.8-36-5.6c-2.6-0.4-3.8-1.1-3.8-4
			c0.1-14.2,0.1-28.3,0-42.5c0-2.6,0.7-3.5,3.4-3.4c8.6,0.6,17.3,1.1,25.9,1.5c3.1,0.1,3.8,1.5,3.7,4.4c-0.2,5.8-0.1,11.7,0,17.5
			c0,2.4,0.2,4.6,3.5,4.9c6.1,0.5,12.2,1.3,18.4,2c2.7,0.3,3.8-0.3,3.8-3.4c-0.2-8.2-0.7-16.4,0.1-24.5c1.3-11.9-1.9-21.9-9.7-30.7
			c-1-1.1-1.9-2.3-2.7-3.6c-1.4-2.3-3.2-2.8-5.8-2.8c-14.3,0.1-28.7,0.7-43-0.2c-8.7-0.5-13.7,3.3-17.8,9.7c-0.6,1-1.3,1.8-2,2.7
			c-1.9,2.5-3.2,5.1-3.2,8.5c0.2,20.5,0.5,41,0,61.5c-0.3,9.5,2.3,17.3,7.9,24.7c4.2,5.5,8.2,10,15.9,10.9c9.7,1.2,19.2,4,28.8,5.8
			c4.3,0.8,6.1,2.4,5.9,7.1C724,409,724.3,417,724.3,425z M468.7,355.7C468.7,355.7,468.7,355.7,468.7,355.7c0,21.7,0.1,43.3,0,65
			c0,2.4,0,4.5,2.1,6.3c3.7,3.1,6.7,6.9,10.1,10.2c2.6,2.5,5.1,3.1,8.4,3c14.1-0.6,28.3-0.8,42.4,0.3c3.6,0.3,6.5-1.1,8.9-3.4
			c3-2.9,5.6-6.1,8.5-9.1c1.1-1.2,1.5-2.5,1.5-4.1c0-10.3-0.1-20.7,0-31c0-3-1.1-4.2-4.1-4.2c-5.5-0.1-11-0.3-16.5-0.8
			c-3.3-0.3-4.5,0.6-4.4,4c0.2,5.7,0,11.3,0,17c0,2.2-0.6,3.3-3.1,3.2c-8.2-0.2-16.3-0.3-24.5-0.1c-4,0.1-5-1.1-5-5
			c0.2-24.8,0.1-49.6,0.1-74.5c0-10.2,0-20.3,0-30.5c0-2,0-3.7,2.7-3.7c8.8,0.1,17.7,0.1,26.5,0.2c2.6,0,3.4,1.3,3.3,3.8
			c-0.1,5.3,0.2,10.7-0.1,16c-0.1,3.2,1.1,4,4,3.9c5.7,0,11.3,0.3,17,0.6c2.6,0.1,4-0.3,3.9-3.5c-0.2-9.7,0-19.3-0.1-29
			c0-3.6-12.6-19-16.1-19.8c-0.8-0.2-1.7-0.1-2.5-0.1c-14.8,0-29.7,0.1-44.5,0c-3.2,0-5.7,1.2-7.8,3.6c-2.2,2.6-4.4,5.3-6.8,7.7
			c-3,3.1-4.5,6.5-4.5,11C468.8,313.7,468.7,334.7,468.7,355.7z M501,355c0,12.2,0,24.3,0,36.5c0,12.8,0,12.6,12.7,12.8
			c3.9,0.1,4.9-1.4,4.7-4.9c-0.2-5.2,0.2-10.3-0.1-15.5c-0.2-3.4,1.1-4.4,4.3-4.1c10.8,0.8,21.6,1.5,32.4,2c2.9,0.1,3.2,1.5,3.2,3.8
			c-0.1,5.5,0.2,11,0,16.5c-0.1,3.4,0.6,5.4,4.5,5.3c4.3,0,2.7-3.1,2.7-5c0.1-30.3,0.1-60.7,0.1-91c0-0.8,0.1-1.7,0-2.5
			c-0.3-3.5-3.1-2.2-5-2.5c-2.3-0.4-2.2,1.3-2.2,2.9c0,5.5-0.1,11,0.2,16.5c0.2,4-1.3,5-5.3,4.9c-7.7-0.4-15.5-0.6-23.3,0
			c-11.3,0.9-12.1,1.1-11.5-9.9c0-0.5,0-1,0-1.5c-0.1-13.5-0.1-13.3-13.3-13.3c-3.4,0-4.1,1.2-4.1,4.3C501,325,501,340,501,355z
			 M398.1,362.2C398.1,362.2,398.1,362.2,398.1,362.2c0,16.5,0.1,33-0.1,49.5c0,3.6,0.8,5,4.6,3.8c2.5-0.8,5.2-1.4,7.8-1.5
			c4.1-0.1,4.7-2.3,4.7-5.8c-0.1-31-0.1-62-0.1-93c0-7.4,0-7.4-7.2-7.3c-1.5,0-3,0.1-4.5,0c-4.1-0.4-5.4,1.1-5.3,5.3
			C398.3,329.5,398.1,345.8,398.1,362.2z M661.7,371.2c-0.4,0.2-0.8,0.3-1.2,0.5c0,10.1,0,20.2,0,30.3c0,2.1,1.7,2.1,3.1,2.5
			c8.2,2.1,16.4,4.2,24.6,6.4c10.7,2.9,10.7,2.9,10.7,14.2c0,14.6,0,14.6,14,18.7c0.2,0,0.3,0.1,0.5,0.2c2.4,1,3.6,0.7,3.6-2.4
			c-0.2-12.2-0.2-24.3,0-36.5c0-2.9-1-4-3.8-4.6c-11.4-2.3-22.8-5-34.2-7.3c-2.5-0.5-4-1.6-5.4-3.8
			C669.8,383.3,665.7,377.3,661.7,371.2z M454.6,356.5c0,15-0.1,30,0.1,44.9c0,1.9-1.4,5,2.7,5c3.6,0.1,3.8-2.1,3.8-4.9
			c0-30.1,0-60.2,0-90.4c0-2.2,1-5.2-3.2-5.3c-4.2-0.1-3.3,2.9-3.3,5.2C454.5,326.2,454.6,341.4,454.6,356.5z M303.9,415.8
			c-0.4,0.1-0.7,0.1-1.1,0.2c0,7.8,0,15.6,0,23.3c0,1.8-0.3,4.3,2.7,2.9c2.1-1,6.8,0.5,5.4-4.3C308.8,430.5,306.2,423.2,303.9,415.8
			z M360.1,410.9c-1.8,1-3.1,1.7-2.9,3.5c0.3,2.9-1,5.5-1.6,8.2c-0.3,1.2-1.3,2.5-0.4,3.7c0.8,1.1,1.8,0,2.7-0.2
			c1.8-0.3,2.3-1.5,2.3-3.2C360.1,419.1,360.1,415.2,360.1,410.9z"/>
		<path class="st0" d="M709.2,321.1c0,6.2,0,12.4,0,18.6c0,0.7-0.7,1.3-1.4,1c-0.5-0.2-1-1-1-1.5c-0.1-6,0-12.1,0-18.1
			C707.5,321.1,708.4,321.1,709.2,321.1z"/>
		<path class="st0" d="M666.1,479c-4-4.1-9.6-6.3-12.8-11.4c3.4-3.8,5.9-2.4,7.6,1.6C662.2,472.7,665.7,475,666.1,479z"/>
		<path class="st0" d="M667,479.1c-0.4,0-0.7-0.1-1.1-0.1C666.3,479,666.7,479.1,667,479.1z"/>
		<path class="st0" d="M597.6,457.9c24.4,1.2,45.1,9.2,62.8,25c4,3.6,6.5,8.1,10.1,11.9c3.4,3.7,2.9,10.6-0.1,13.9
			c-1.3,1.4-2.9,2.5-4.8,1.9c-1.9-0.6-1.3-2.5-1.3-3.9c0.1-7.3-1.1-14.2-5-20.4c-0.6-1-1.3-1.9-2.2-2.6c-0.8-0.7-1.8-1.9-3-1.1
			c-1.5,0.9-0.7,2.4-0.5,3.6c1,4.5,2,9.1,2.9,13.6c0.4,2,1.4,4.7-1.9,5.2c-2.6,0.4-4.4-1-5.1-3.7c-1.5-6.5-2.4-13-4.6-19.4
			c-1.3-3.9-2.7-7.8-5.9-10.7c-1.5-1.4-2.8-1.7-4.8-0.5c-2.3,1.4-1.1,2.5-0.6,4.1c2.2,6.8,4.8,13.4,5.7,20.6c0.2,1.7,1.3,4-1.1,4.8
			c-2.8,1-3.7-1.6-4.4-3.6c-3.5-10.5-8.7-20.1-15.2-29c-1.6-2.2-3.3-5-6.7-4.1c-2.7,0.7-4.4,2.2-2.3,5.4c4.3,6.5,8.9,12.8,11.7,20.1
			c0.7,1.7,1.4,3.4,2,5.1c0.8,2.3,1.7,4.7-1.5,5.8c-2.8,1-5.6,1.2-7.2-2.2c-4.3-9.1-10.2-17.2-17-24.6c-2.2-2.4-4.6-4.7-7-7
			c-2.7-2.6-5.4-1.1-7.5,0.7c-2.6,2.2-1.3,4.6,0.7,6.4c7.8,6.9,14.5,14.7,19.6,23.8c1.2,2.2,4.5,4.5,0.8,7.2
			c-3.2,2.4-6.7,2.3-9.5-0.7c-4.7-5-9.2-10.1-13.7-15.2c-3.9-4.5-7.9-9-11.7-13.7c-2.5-3.1-5.6-4.3-8.5-1.4
			c-2.7,2.7-1.2,5.4,1.3,8.1c8,8.9,15.6,18.1,23.3,27.2c1.5,1.8,2.5,3.8,0.8,5.8c-1.8,2.2-4.2,3.6-7,2.3c-2.2-1-4.4-2.4-6.2-4.1
			c-8.4-8-16.7-16.2-22.1-26.8c-0.7-1.4-1.6-2.9-3.3-2.2c-2.3,0.9-4.8,2-5,5c-0.1,1.6,0.3,3.2,1.1,4.7c6.1,10.6,14.7,19.2,23.3,27.8
			c0.4,0.5,1.1,0.6,1.7,1c1.6,1.2,5.5,1,4,4.4c-1.4,3-3.2,6.2-7.8,5.6c-9.3-1.1-16-6.7-22.3-12.7c-4.4-4.2-7.8-9.4-10.5-14.9
			c-4.4-8.9-3.3-14.4,4.4-20.6c9.8-7.8,19.9-14.7,31.8-19.5C578.3,460.4,588.1,458.7,597.6,457.9z"/>
		<path class="st0" d="M413.8,458c18.5,0.3,34.7,6.9,49.6,17.1c4.6,3.1,9.1,6.4,13.4,10.1c5.3,4.6,6.8,10.3,3.9,16.2
			c-6.9,14.2-16,26.5-32.6,30.5c-1.8,0.4-3.7,1-5.7-0.6c-4.9-4.1-4.8-5.7,0.4-9.5c10.2-7.5,18-17.3,24.7-27.8c1.5-2.3,3-5.4-0.1-8.2
			c-3.6-3.2-4.8-2.8-7.3,1.2c-7.2,11.5-15.9,21.5-27,29.5c-3.8,2.7-5.1-0.2-7-1.5c-2.6-1.7-2.1-4.3-0.3-6.5c3.8-4.4,7.6-8.7,11.4-13
			c4.4-5.1,8.8-10.2,13.2-15.2c2.4-2.8,2.3-5.7-0.5-7.8c-2.8-2.1-5.5-1.1-7.8,1.5c-7.7,9.1-15.4,18.3-23.2,27.3
			c-2.5,2.8-5.3,5.7-9.9,3.7c-3.1-1.4-3.9-3.1-2.1-6.2c5-8.7,10.9-16.7,18.5-23.4c2.4-2.1,6.5-4.3,3.2-8.5
			c-2.6-3.3-5.8-2.8-10.1,1.4c-8.6,8.2-15.7,17.6-20.9,28.3c-1.8,3.7-4.2,4.5-7.6,3.1c-3.7-1.5-2-4.1-1.2-6.7
			c2.7-8.6,8-15.6,12.6-23.2c1-1.7,3.2-3.5,0.7-5.6c-2.6-2.1-5-1.2-7,1c-4.6,5-8.2,10.8-11,16.9c-2.2,4.8-4.1,9.8-6.1,14.8
			c-0.8,1.9-1.8,4-4.2,3.3c-2.5-0.7-1.6-3.1-1.4-4.7c1-7,3.3-13.6,5.8-20.1c0.9-2.3,1.3-4.2-1.1-5.4c-2.4-1.1-4.5,0-5.9,2.2
			c-3.8,5.9-5.6,12.6-6.9,19.4c-0.6,2.9-0.9,5.9-1.5,8.8c-0.6,3-2.3,5-5.5,4.4c-3.4-0.6-1.9-3.5-1.7-5.3c0.7-4.6,2-9.1,2.9-13.7
			c0.2-1.2,0.8-2.8-0.7-3.6c-1.3-0.7-2.5,0.2-3.5,1.2c-4.1,4-4.6,9.4-5.8,14.6c-0.7,2.9-0.6,5.9-0.8,8.9c-0.1,1.2,0.5,2.9-1.3,3.4
			c-1.3,0.4-2.6-0.1-3.7-0.9c-3.3-2.5-4.4-8.6-1.9-13.3c4-7.5,10.3-13.2,16.8-18.3C373.8,464.9,392.9,458.6,413.8,458z"/>
		<path class="st0" d="M652.8,559.9c9.1-2.6,17-3.6,25-4.2c2.6-0.2,6.4,0.6,6.3-3.7c0-4.1-2.5-6.2-6.7-6.4
			c-7.8-0.5-15.2,1.5-22.7,2.9c-0.6,0.1-1.3,0.2-2,0.3c1-3.7,1.8-4.3,5.6-5.9c5.5-2.3,11.6-2.7,17-5.4c2.2-1.1,2.9-1.8,2.3-4.3
			c-0.7-2.8-2.2-4.3-4.9-3.8c-3,0.6-5.9,1.7-9.4,2.7c1.7-4.9,5.6-8.6,5.3-14.5c7.1,6.4,11.6,13.9,15.1,21.9
			c8.8,20,7.6,40.1,0.6,60.3c-1.2,3.5-3.4,6-6.8,7.6c-1.6,0.8-3,1.8-2.1,3.9c0.9,2.1,2.3,0.7,3.7,0.4c5.4-1.3,10.8,3.2,10.8,8.8
			c0,1.7-0.5,3-2.3,3.3c-1.6,0.3-2.2-0.6-2.7-2.1c-0.5-1.5-1-3-2.2-4.3c-1.3-1.4-2.1-2.3-4-1c-1.8,1.2-2.2,2.3-0.7,3.9
			c1,1.1,1.3,2.3,0.4,3.7c-2.3-0.2-3.4-2.1-4.3-3.7c-1.4-2.5-3.7-3-5.7-2c-2.5,1.3-0.1,3.1,0.5,4.7c0.3,0.9,1,1.7,1.4,2.6
			c0.3,0.7,0.7,1.6-0.2,2.2c-0.9,0.6-2,0.6-2.7-0.2c-1.5-1.5-3.1-3.1-4.3-4.8c-2-2.8-4.6-2.1-6.3-0.3c-1.2,1.3,0.4,3.1,1.7,4.3
			c0.5,0.5,1.1,0.8,1.5,1.2c0.7,0.8,2.1,1.8,1.3,2.9c-1.2,1.5-2.5,0-3.4-0.7c-2.7-2.1-5.1-4.8-9.1-4.3c-1.3,0.2-2.9-0.1-3.5,1.3
			c-0.7,1.6,1,2.3,1.8,3.2c0.8,0.9,1.7,1.6,2.7,2.2c1.1,0.7,2.8,1.4,1.7,2.9c-0.7,1-2.5,0.7-3.7,0c-1.9-1.2-3.8-2.6-5.8-3.8
			c-2.5-1.6-5.5-1-6.7,0.9c-1.6,2.5,1.6,3.3,3.2,4.5c0.7,0.5,1.4,0.9,2.1,1.4c1,0.7,1.8,1.6,1.2,2.9c-0.7,1.5-2.2,1.7-3.4,1
			c-2-1.2-3.8-2.7-5.7-4c-2.1-1.4-4.6-2-6.3,0c-1.7,2,0.3,3.6,1.7,5.1c0.7,0.7,1.4,1.5,2,2.2c0.8,1,1.1,2.1,0.3,3.2
			c-0.9,1.3-2.3,1.3-3.6,0.8c-0.7-0.3-1.4-0.9-2-1.4c-6.4-5.9-8.5-5.2-10.5,3.6c-0.5,2.1-0.6,4.3-1.8,6.2c-1.7,2.5-4.2,2.9-6.5,1.5
			c-2.4-1.4-2.4-3.8-0.9-6.1c5.4-8.6,13.6-13.9,22-19c7.7-4.7,15.2-9.7,23.7-13c1.3-0.5,4.1-1.2,2.8-3.7c-1-2-3.2-2.5-5.2-1.5
			c-2.6,1.2-4.9,2.8-7.4,4c-1.5,0.7-3.1,1.3-4.7,1.5c-1.6,0.2-3.5,0-4.4-1.7c-1-1.9,0-3.5,1.3-4.9c1.9-2.1,4.5-2.7,7-3.7
			c0.9-0.4,2-0.6,2-1.9c0-1-0.5-2.1-1.6-2.3c-1.9-0.3-3.1-2.2-4.8-2.4c-5.2-0.7-4.9-4.2-4.2-7.8c1.4-7.1,6.8-11.2,14.1-10.6
			c8.9,0.8,17.2,3.6,25.1,7.9c1.9,1.1,4.2,4.5,6.7,0.8c1.8-2.6,0.4-8.4-2.3-10.1c-7.4-4.6-15.3-8-24-9.2c-1.5-0.2-2.9-0.6-4.4-0.8
			c-1.1-0.2-2.6,0-2.5-1.6c0.1-1.6,1.5-1.4,2.7-1.6c7.6-0.8,14.9,0.1,22.1,2.8c3.3,1.2,6.5,2.6,9.7,3.8c2.2,0.8,4.7,1.7,6-1.3
			c1.2-2.8,0.7-5.3-2.2-6.8c-6.7-3.4-13.8-6.1-21.2-7.7C658.8,562,656.5,561.1,652.8,559.9z"/>
		<path class="st0" d="M559.8,459c-0.7,3.3-3.8,1.7-5.7,2.8c-10.1,5.4-19.4,11.8-27.3,20.1c-11.7,12.3-28.7,12.7-40.6,1
			c-10-9.8-21.4-17.7-34-23.9c5.9-0.9,11.8-1.9,17.8-2.6c2.4-0.3,4-1.3,4.5-4.5c2.3,3.9,5.5,3.6,8.7,3.5c12-0.2,24-0.8,35.9-0.3
			C532.6,455.7,546.5,454.9,559.8,459z"/>
		<path class="st0" d="M628.8,364c0,19.5-0.1,38.9,0.1,58.4c0,3.9-0.9,4.8-4.8,3.7c-8-2.1-16.2-3.7-24.4-5.3
			c-2.8-0.5-3.8-1.7-3.8-4.7c0.1-37.3,0.1-74.6,0-111.8c0-3.3,0.8-4.8,4.5-4.5c8,0.6,15.9,0.9,23.9,1c3.4,0.1,4.5,1.1,4.5,4.6
			C628.7,325,628.8,344.5,628.8,364C628.8,364,628.8,364,628.8,364z M621.2,363c0-14,0-28,0-41.9c0-12.9,0-12.8-12.9-13.3
			c-3.7-0.1-4.9,0.9-4.8,4.7c0.2,29.5,0.2,58.9,0.2,88.4c0,13.3,0,13.1,13.2,15.9c3.8,0.8,4.5-0.3,4.5-3.8
			C621.1,396.3,621.2,379.7,621.2,363z"/>
		<path class="st0" d="M477.1,621.7c-2.4,0.1-4,0.3-5.6,0.3c-1.4,0-3-0.1-3.4,1.4c-0.5,1.6,1.4,2.1,2.4,2.8c2.8,2,5.8,3.9,8.6,6
			c1,0.8,2.4,1.7,1.6,3.3c-0.7,1.3-2.1,0.5-3.2,0.6c-2,0.2-4.9-1.8-5.8,0.9c-0.8,2.4,2.6,3,4,4.5c0.7,0.8,2.1,1.1,2.8,1.9
			c1.3,1.8,3.8,4,2.6,5.9c-1.1,1.8-3.4-0.6-5.2-1.1c-1.4-0.4-2.9-1.7-4.1-0.1c-1.1,1.4,0,2.8,0.8,4.1c5.8,9.4,5.8,9.4-1.3,17.7
			c-1.2,1.4-2.4,2.8-3.5,4.2c-1.7,2.3-3.2,3.8-6.6,2.5c-3.3-1.3-4.6-3-4.4-6.6c1-13.8-0.4-27.2-5.8-40.1c-1.6-3.7-3.7-6.2-7.6-7.9
			c-16.8-7.5-22.3-24.1-19.8-41c0.1-0.8,0.3-1.6,1.1-2.1c2.8-1.6,11,0,13,2.6c7.2,9.4,15.2,17.6,27.2,20.6c0.8,0.2,1.5,0.6,2.1,1.1
			c1.3,1,3.3,2.1,2.4,3.9c-0.9,1.8-2.7,0.5-4.3,0.3c-14.5-1.6-23.1-11.6-31.5-22c-0.9-1.1-1.7-2.8-3.5-2.4c-2.2,0.4-1.8,2.5-2.3,4
			c-3.4,10.3,7.1,26.6,17,28.5c5.3,1,10,0.1,13.9-3.6c3.1-3,5.8-2.9,9,0.1C471,614.9,474.2,617.6,477.1,621.7z"/>
		<path class="st0" d="M534.6,621.7c3-5.6,7.7-8.4,11.9-11.8c1.4-1.1,2.8,0,4.1,0.8c11.3,7.8,20.4,6.4,28.3-5.1
			c3.9-5.7,6.3-12.1,4.1-19.3c-0.4-1.2-0.2-2.8-1.9-3.1c-1.6-0.3-2.4,0.9-3.3,1.9c-3.7,4.1-7.2,8.3-11,12.2
			c-4.6,4.7-10,8.2-16.9,8.6c-3.2,0.2-5.9,2.2-9.1,3.8c-0.4-4.3,1.9-6.4,4.9-7.3c12.3-3.6,21.1-11.6,28.2-21.8c3.2-4.6,8-1.8,12-1.7
			c2.9,0.1,1.9,3.7,2,5.9c0.7,8.8-0.6,17.1-5.6,24.8c-3.6,5.5-7.9,9.9-14.1,12.1c-4.5,1.6-6.6,4.9-8.5,9c-5.8,12.4-6,25.5-5.5,38.7
			c0.1,2.9,0.1,5.5-3.3,6.9c-2.9,1.2-5,1-7-1.5c-2.1-2.6-4.1-5.2-6.4-7.6c-5.3-5.5-5.3-6-1-12.5c1.3-1.9,4.7-3.9,2.8-6.1
			c-1.4-1.6-5-1.3-7.2,0.9c-0.7,0.7-1.7,0.8-2.1-0.1c-0.3-0.8-0.3-2.1,0.1-2.9c1.6-2.8,4.2-4.6,6.8-6.5c1.1-0.8,3.3-1.2,2.7-3.1
			c-0.6-1.9-2.5-1-3.9-1.1c-1-0.1-2,0-3,0c-0.9,0-2.1,0.4-2.5-0.9c-0.3-1.1,0.4-1.9,1.2-2.5c2.9-2,5.8-3.9,8.7-5.9
			c1.2-0.8,3.1-1.2,2.8-3.1c-0.4-2.1-2.3-1.4-3.7-1.5C538,621.9,536.7,621.8,534.6,621.7z"/>
		<path class="st1" d="M559.8,459c-13.3-4.1-27.1-3.3-40.7-3.9c-12-0.5-24,0.1-35.9,0.3c-3.2,0.1-6.4,0.3-8.7-3.5
			c-0.6,3.1-2.1,4.2-4.5,4.5c-5.9,0.7-11.8,1.7-17.8,2.6c-4.1-1.6-8.2-3.3-12.4-4.9c7.3-2.5,15.1-3.1,22.6-4.4
			c2.7-0.5,3.6-1.3,3.6-4c0-3.9-0.8-7.8,0.5-12.2c4.4,3.5,7.9,7.1,11.2,10.9c2.2,2.5,4.8,3.7,8.3,3.4c15.9-1.1,31.9-1.2,47.8,0.3
			c4.7,0.4,8.3-0.3,11.1-4.4c2-3,4.9-5.3,7.8-8.4c1.5,3.9,0.8,7.4,0.7,10.7c-0.1,3.2,1.2,4.1,3.9,4.5c4.8,0.7,9.6,1.1,14.1,2.7
			C568.6,457.4,563.2,456.3,559.8,459z"/>
		<path class="st0" d="M438.5,598c1.8,1,3.4,2.6,3.6,4.7c0.2,1.8-0.1,4.7-2.1,4.9c-2,0.3-4.3-2.2-4.2-3.9
			C435.9,601.9,435.2,598.8,438.5,598z"/>
		<path class="st0" d="M574.6,602.1c0.6,3.5-1,5.4-2.8,5.5c-2.5,0.2-2.4-2.7-2.7-4.4c-0.4-2.5,1.7-4.7,3.4-4.7
			C574.8,598.3,574.3,601.3,574.6,602.1z"/>
		<path class="st2" d="M724.3,425c0-8-0.3-16,0.1-24c0.3-4.7-1.6-6.3-5.9-7.1c-9.6-1.8-19.1-4.7-28.8-5.8
			c-7.7-0.9-11.7-5.4-15.9-10.9c-5.6-7.4-8.2-15.2-7.9-24.7c0.6-20.5,0.2-41,0-61.5c0-3.4,1.3-6,3.2-8.5c0.7-0.9,1.4-1.8,2-2.7
			c4.1-6.5,9.1-10.3,17.8-9.7c14.3,0.9,28.6,0.3,43,0.2c2.6,0,4.5,0.5,5.8,2.8c0.8,1.3,1.7,2.5,2.7,3.6c7.9,8.8,11,18.8,9.7,30.7
			c-0.9,8.1-0.4,16.3-0.1,24.5c0.1,3.1-1.1,3.7-3.8,3.4c-6.1-0.8-12.2-1.5-18.4-2c-3.4-0.3-3.5-2.5-3.5-4.9
			c-0.1-5.8-0.3-11.7,0-17.5c0.1-3-0.6-4.3-3.7-4.4c-8.7-0.4-17.3-0.9-25.9-1.5c-2.7-0.2-3.4,0.8-3.4,3.4c0.1,14.2,0.1,28.3,0,42.5
			c0,2.9,1.2,3.6,3.8,4c12,1.7,24,3.7,36,5.6c2.9,0.5,4.9,1.7,6.7,4.4c3.8,5.8,6.4,12.3,10.7,17.8c1.4,1.8,1.7,4.5,1.7,7.1
			c-0.1,26.7-0.1,53.3,0,80c0,3-0.7,5.4-2.8,7.7c-4.6,5-9.1,10.2-13.4,15.4c-1.8,2.2-3.5,2.3-6,1.3c-14.4-5.8-28.7-11.4-43.2-16.8
			c-2.2-0.8-3.1-2.5-4-4.1c-4-6.3-7.7-12.8-11.6-19.1c-2-3.2-3-6.5-2.9-10.3c0.2-8.7,0.2-17.3,0-26c-0.1-3.8,1-4.6,4.6-3.5
			c5.9,1.8,11.9,3.3,17.9,4.6c2.4,0.5,2.8,1.7,2.8,3.8c0,6.2,0.1,12.3,0,18.5c-0.1,2.8,0.9,4.2,3.6,5.1c8.6,2.7,17.1,5.5,25.6,8.3
			c3,1,3.8,0.2,3.7-2.8C724.2,442.7,724.3,433.9,724.3,425C724.3,425,724.3,425,724.3,425z"/>
		<path class="st2" d="M468.7,355.7c0-21,0.1-42-0.1-63c0-4.5,1.4-7.9,4.5-11c2.4-2.4,4.6-5.1,6.8-7.7c2.1-2.4,4.5-3.6,7.8-3.6
			c14.8,0,29.7,0,44.5,0c0.8,0,1.7,0,2.5,0.1c3.5,0.8,16.1,16.2,16.1,19.8c0,9.7-0.1,19.3,0.1,29c0.1,3.2-1.3,3.6-3.9,3.5
			c-5.6-0.3-11.3-0.6-17-0.6c-3,0-4.2-0.8-4-3.9c0.2-5.3-0.1-10.7,0.1-16c0.1-2.5-0.7-3.8-3.3-3.8c-8.8,0-17.7-0.1-26.5-0.2
			c-2.8,0-2.8,1.7-2.7,3.7c0,10.2,0,20.3,0,30.5c0,24.8,0.1,49.6-0.1,74.5c0,4,1,5.2,5,5c8.1-0.3,16.3-0.1,24.5,0.1
			c2.5,0.1,3.1-1,3.1-3.2c-0.1-5.7,0.2-11.3,0-17c-0.1-3.4,1.1-4.3,4.4-4c5.5,0.5,11,0.7,16.5,0.8c2.9,0.1,4.1,1.2,4.1,4.2
			c-0.1,10.3-0.1,20.7,0,31c0,1.6-0.4,2.9-1.5,4.1c-2.8,3-5.5,6.3-8.5,9.1c-2.4,2.3-5.4,3.7-8.9,3.4c-14.1-1.1-28.3-0.9-42.4-0.3
			c-3.3,0.1-5.8-0.5-8.4-3c-3.5-3.3-6.5-7.1-10.1-10.2c-2.1-1.8-2.1-3.9-2.1-6.3C468.8,399,468.8,377.3,468.7,355.7
			C468.7,355.7,468.7,355.7,468.7,355.7z"/>
		<path class="st1" d="M501,355c0-15,0.1-30-0.1-45c0-3.1,0.6-4.3,4.1-4.3c13.3-0.1,13.3-0.2,13.3,13.3c0,0.5,0,1,0,1.5
			c-0.6,11,0.2,10.8,11.5,9.9c7.8-0.6,15.5-0.4,23.3,0c3.9,0.2,5.4-0.9,5.3-4.9c-0.2-5.5-0.1-11-0.2-16.5c0-1.6-0.1-3.3,2.2-2.9
			c1.9,0.3,4.7-1,5,2.5c0.1,0.8,0,1.7,0,2.5c0,30.3,0,60.7-0.1,91c0,1.9,1.6,5-2.7,5c-4,0-4.6-2-4.5-5.3c0.2-5.5-0.1-11,0-16.5
			c0-2.3-0.3-3.6-3.2-3.8c-10.8-0.5-21.6-1.2-32.4-2c-3.2-0.2-4.5,0.7-4.3,4.1c0.3,5.1-0.1,10.3,0.1,15.5c0.2,3.6-0.8,5-4.7,4.9
			c-12.7-0.2-12.7,0-12.7-12.8C501,379.3,501,367.2,501,355z M509.2,396.6c1.8-2.1,1.5-3.8,1.5-5.3c0.1-4.7,0.4-9.4-0.1-14
			c-0.6-5.1,1.4-6.1,6.1-5.7c12.3,0.9,24.6,1.2,36.8,2.2c3.4,0.3,4.4-0.3,4.3-3.8c-0.2-9.1-0.3-18.3,0-27.4c0.1-3.6-1.3-4.5-4.5-4.5
			c-10.8-0.1-21.6-0.4-32.4-0.8c-10.1-0.4-10.1-0.5-10.1-10.6c0-4,0.3-8-1.5-11.8C509.2,341.8,509.2,368.7,509.2,396.6z"/>
		<path class="st1" d="M398.1,362.2c0-16.3,0.1-32.7-0.1-49c-0.1-4.2,1.3-5.8,5.3-5.3c1.5,0.2,3,0,4.5,0c7.2-0.1,7.2-0.1,7.2,7.3
			c0,31,0,62,0.1,93c0,3.5-0.6,5.7-4.7,5.8c-2.6,0.1-5.3,0.7-7.8,1.5c-3.8,1.2-4.6-0.2-4.6-3.8C398.2,395.2,398.1,378.7,398.1,362.2
			C398.1,362.2,398.1,362.2,398.1,362.2z M406.9,316.8c-0.2-0.1-0.4-0.2-0.6-0.2c0,29.8,0,59.6,0,89.4c0.2,0,0.4,0,0.6,0
			C406.9,376.3,406.9,346.6,406.9,316.8z"/>
		<path class="st1" d="M661.7,371.2c4,6.1,8.1,12.1,11.9,18.3c1.3,2.2,2.8,3.2,5.4,3.8c11.4,2.3,22.8,5,34.2,7.3
			c2.9,0.6,3.9,1.7,3.8,4.6c-0.1,12.2-0.1,24.3,0,36.5c0,3.1-1.2,3.4-3.6,2.4c-0.2-0.1-0.3-0.1-0.5-0.2c-14-4.1-14-4.1-14-18.7
			c0-11.3,0-11.4-10.7-14.2c-8.2-2.2-16.4-4.3-24.6-6.4c-1.4-0.4-3.1-0.4-3.1-2.5c0-10.1,0-20.2,0-30.3
			C660.9,371.5,661.3,371.4,661.7,371.2z M706.6,420.8C706.6,420.8,706.6,420.8,706.6,420.8c0,3.6-0.1,7.3,0,10.9
			c0,1.1,0.3,2.1,1.6,2.1c1.1,0,1-1.1,1-1.9c0-7.3,0.1-14.5,0.1-21.8c0-1-0.3-2.2-1.6-2.1c-1.2,0.2-1.1,1.4-1.1,2.4
			C706.7,413.8,706.6,417.3,706.6,420.8z"/>
		<path class="st1" d="M454.6,356.5c0-15.1,0-30.3,0-45.4c0-2.3-0.8-5.2,3.3-5.2c4.2,0.1,3.2,3.1,3.2,5.3c0,30.1,0,60.2,0,90.4
			c0,2.8-0.2,4.9-3.8,4.9c-4.1-0.1-2.7-3.1-2.7-5C454.5,386.5,454.6,371.5,454.6,356.5z"/>
		<path class="st1" d="M303.9,415.8c2.4,7.4,5,14.7,7.1,22.1c1.4,4.8-3.3,3.3-5.4,4.3c-3,1.4-2.7-1.1-2.7-2.9c0-7.8,0-15.6,0-23.3
			C303.1,416,303.5,415.9,303.9,415.8z"/>
		<path class="st1" d="M360.1,410.9c0,4.3,0,8.2,0,12.1c0,1.7-0.5,2.9-2.3,3.2c-0.9,0.2-1.8,1.3-2.7,0.2c-0.9-1.3,0.1-2.5,0.4-3.7
			c0.6-2.7,1.9-5.3,1.6-8.2C357,412.6,358.3,411.9,360.1,410.9z"/>
		<path class="st1" d="M621.2,363c0,16.6-0.1,33.3,0.1,49.9c0,3.5-0.7,4.6-4.5,3.8c-13.2-2.7-13.2-2.6-13.2-15.9
			c0-29.5,0-58.9-0.2-88.4c0-3.8,1.1-4.8,4.8-4.7c13,0.4,13,0.3,12.9,13.3C621.2,335.1,621.2,349.1,621.2,363z M612.9,316.4
			c-2.6,5.7-2.1,88.6,0,91.1C612.9,377,612.9,346.7,612.9,316.4z"/>
		<path class="st0" d="M509.2,396.6c0-27.9,0-54.9,0-81.8c1.8,3.8,1.5,7.8,1.5,11.8c0.1,10.1,0,10.2,10.1,10.6
			c10.8,0.4,21.6,0.7,32.4,0.8c3.3,0,4.6,0.9,4.5,4.5c-0.3,9.1-0.2,18.3,0,27.4c0.1,3.5-0.9,4-4.3,3.8c-12.3-0.9-24.6-1.3-36.8-2.2
			c-4.6-0.3-6.6,0.6-6.1,5.7c0.5,4.6,0.2,9.3,0.1,14C510.7,392.8,511,394.5,509.2,396.6z"/>
		<path class="st0" d="M406.9,316.8c0,29.7,0,59.4,0,89.2c-0.2,0-0.4,0-0.6,0c0-29.8,0-59.6,0-89.4
			C406.5,316.7,406.7,316.8,406.9,316.8z"/>
		<path class="st0" d="M706.6,420.8c0-3.5,0-6.9,0-10.4c0-1-0.1-2.2,1.1-2.4c1.3-0.2,1.6,1,1.6,2.1c0,7.3-0.1,14.5-0.1,21.8
			c0,0.8,0,1.9-1,1.9c-1.3,0.1-1.6-1-1.6-2.1C706.6,428,706.6,424.4,706.6,420.8C706.6,420.8,706.6,420.8,706.6,420.8z"/>
		<path class="st0" d="M612.9,316.4c0,30.3,0,60.6,0,91.1C610.9,405,610.3,322.1,612.9,316.4z"/>
	</g>
</g>
</svg>
